HIERARCHY
ROOT Hips
{
	OFFSET 0.00000 0.00000 0.00000
	CHANNELS 6 Xposition Yposition Zposition Zrotation Yrotation Xrotation 
	JOINT LHipJoint
	{
		OFFSET 0 0 0
		CHANNELS 3 Zrotation Yrotation Xrotation
		JOINT LeftUpLeg
		{
			OFFSET 1.80322 -1.53100 0.99595
			CHANNELS 3 Zrotation Yrotation Xrotation
			JOINT LeftLeg
			{
				OFFSET 2.25177 -6.18669 0.00000
				CHANNELS 3 Zrotation Yrotation Xrotation
				JOINT LeftFoot
				{
					OFFSET 2.26601 -6.22582 0.00000
					CHANNELS 3 Zrotation Yrotation Xrotation
					JOINT LeftToeBase
					{
						OFFSET 0.23701 -0.65119 2.15848
						CHANNELS 3 Zrotation Yrotation Xrotation
						End Site
						{
							OFFSET 0.00000 -0.00000 1.12949
						}
					}
				}
			}
		}
	}
	JOINT RHipJoint
	{
		OFFSET 0 0 0
		CHANNELS 3 Zrotation Yrotation Xrotation
		JOINT RightUpLeg
		{
			OFFSET -1.93977 -1.53100 0.99595
			CHANNELS 3 Zrotation Yrotation Xrotation
			JOINT RightLeg
			{
				OFFSET -2.28036 -6.26523 0.00000
				CHANNELS 3 Zrotation Yrotation Xrotation
				JOINT RightFoot
				{
					OFFSET -2.25490 -6.19528 0.00000
					CHANNELS 3 Zrotation Yrotation Xrotation
					JOINT RightToeBase
					{
						OFFSET -0.28375 -0.77960 2.23137
						CHANNELS 3 Zrotation Yrotation Xrotation
						End Site
						{
							OFFSET -0.00000 -0.00000 1.17899
						}
					}
				}
			}
		}
	}
	JOINT LowerBack
	{
		OFFSET 0 0 0
		CHANNELS 3 Zrotation Yrotation Xrotation
		JOINT Spine
		{
			OFFSET -0.00088 2.12090 -0.02806
			CHANNELS 3 Zrotation Yrotation Xrotation
			JOINT Spine1
			{
				OFFSET -0.00286 2.09666 0.12974
				CHANNELS 3 Zrotation Yrotation Xrotation
				JOINT Neck
				{
					OFFSET 0 0 0
					CHANNELS 3 Zrotation Yrotation Xrotation
					JOINT Neck1
					{
						OFFSET 0.07328 1.83526 0.07290
						CHANNELS 3 Zrotation Yrotation Xrotation
						JOINT Head
						{
							OFFSET -0.06683 1.74974 -0.49542
							CHANNELS 3 Zrotation Yrotation Xrotation
							End Site
							{
								OFFSET -0.03398 1.85163 -0.17573
							}
						}
					}
				}
				JOINT LeftShoulder
				{
					OFFSET 0 0 0
					CHANNELS 3 Zrotation Yrotation Xrotation
					JOINT LeftArm
					{
						OFFSET 3.02113 1.18018 0.40602
						CHANNELS 3 Zrotation Yrotation Xrotation
						JOINT LeftForeArm
						{
							OFFSET 4.58538 -0.00000 -0.00000
							CHANNELS 3 Zrotation Yrotation Xrotation
							JOINT LeftHand
							{
								OFFSET 2.68935 -0.00000 -0.00000
								CHANNELS 3 Zrotation Yrotation Xrotation
								JOINT LeftFingerBase
								{
									OFFSET 0 0 0
									CHANNELS 3 Zrotation Yrotation Xrotation
									JOINT LeftHandIndex1
									{
										OFFSET 0.58506 -0.00000 -0.00000
										CHANNELS 3 Zrotation Yrotation Xrotation
										End Site
										{
											OFFSET 0.47169 -0.00000 -0.00000
										}
									}
								}
								JOINT LThumb
								{
									OFFSET 0 0 0
									CHANNELS 3 Zrotation Yrotation Xrotation
									End Site
									{
										OFFSET 0.47889 -0.00000 0.47889
									}
								}
							}
						}
					}
				}
				JOINT RightShoulder
				{
					OFFSET 0 0 0
					CHANNELS 3 Zrotation Yrotation Xrotation
					JOINT RightArm
					{
						OFFSET -2.95074 1.18843 0.31430
						CHANNELS 3 Zrotation Yrotation Xrotation
						JOINT RightForeArm
						{
							OFFSET -4.47450 -0.00000 -0.00000
							CHANNELS 3 Zrotation Yrotation Xrotation
							JOINT RightHand
							{
								OFFSET -2.93896 -0.00000 -0.00000
								CHANNELS 3 Zrotation Yrotation Xrotation
								JOINT RightFingerBase
								{
									OFFSET 0 0 0
									CHANNELS 3 Zrotation Yrotation Xrotation
									JOINT RightHandIndex1
									{
										OFFSET -0.40509 -0.00000 -0.00000
										CHANNELS 3 Zrotation Yrotation Xrotation
										End Site
										{
											OFFSET -0.32660 -0.00000 -0.00000
										}
									}
								}
								JOINT RThumb
								{
									OFFSET 0 0 0
									CHANNELS 3 Zrotation Yrotation Xrotation
									End Site
									{
										OFFSET -0.33158 -0.00000 0.33158
									}
								}
							}
						}
					}
				}
			}
		}
	}
}
MOTION
Frames: 5
Frame Time: .0083333
1.0645 14.5389 0.7020 -0.7795 4.3805 13.9067 0.0000 0.0000 0.0000 -17.0620 -19.1550 -50.7877 6.6221 15.0053 47.4303 0.1693 1.2365 -8.3262 0.5607 4.7960 13.3277 0.0000 0.0000 0.0000 19.8126 -6.6332 -2.2299 -7.1069 -15.4213 49.2775 0.9965 -18.8908 -15.1715 -0.6824 5.2817 -14.7138 7.8572 6.7253 -5.2786 -1.4052 8.8564 -8.2423 -5.5802 4.0151 -4.3282 6.6630 0.7553 -12.1989 -6.0630 2.1374 41.4882 -3.5702 1.2920 17.4223 0.0000 0.0000 0.0000 -51.0708 -7.5592 27.4173 158.2274 -32.7190 -113.5375 -0.0000 0.0000 -1.1323 29.2092 4.0427 2.2572 -7.1250 0.0000 -0.0000 2.1275 34.6029 -0.5433 0.0000 0.0000 0.0000 68.5230 14.0157 35.1713 -150.5979 40.3754 -108.9797 0.0000 -0.0000 -13.2354 -35.7112 12.7048 -8.9841 7.1250 -0.0000 -0.0000 -5.7356 -14.5169 -4.1359
1.0991 14.5745 0.7972 -0.3244 5.7122 13.1923 0.0000 0.0000 0.0000 -18.4065 -19.4737 -48.8324 6.3855 14.7918 46.5101 0.1693 0.8136 -8.1121 0.5922 4.9268 13.6999 0.0000 0.0000 0.0000 19.0543 -6.9236 -4.0587 -8.3277 -16.3551 53.7346 0.5865 -15.2419 -13.3961 -0.8379 5.8391 -16.3182 7.5195 6.6186 -4.9222 -1.3371 8.7501 -8.1032 -5.3697 3.9788 -4.4455 6.2922 0.3501 -11.9457 -5.9264 1.6164 41.7638 -3.5355 1.0569 17.4500 -0.0000 0.0000 0.0000 -51.3478 -7.8274 27.9817 158.1645 -32.7906 -113.5035 -0.0000 0.0000 -0.8181 29.2605 3.8917 2.1777 -7.1250 0.0000 -0.0000 2.1704 34.4323 -0.5633 -0.0000 0.0000 0.0000 68.1873 13.4774 34.4313 -150.6899 40.2946 -109.0393 0.0000 -0.0000 -13.3116 -35.6779 12.5152 -8.8436 7.1250 -0.0000 -0.0000 -5.7398 -14.7496 -4.1103
1.1313 14.6088 0.8870 0.1456 7.0693 12.5268 0.0000 0.0000 0.0000 -19.7405 -19.7965 -46.8900 6.1423 14.5649 45.5504 0.1660 0.4428 -7.8691 0.6192 5.0358 14.0107 0.0000 0.0000 0.0000 18.2417 -7.2731 -6.1535 -9.6834 -17.2279 58.4248 0.2375 -11.4931 -12.3360 -1.0066 6.3841 -17.9030 7.1427 6.4875 -4.5998 -1.2601 8.6049 -7.9386 -5.1236 3.9275 -4.5275 5.9464 -0.0365 -11.6830 -5.8304 1.1280 41.9811 -3.5144 0.8317 17.4498 0.0000 0.0000 0.0000 -51.7018 -8.1818 28.5756 158.0951 -32.8694 -113.4659 -0.0000 0.0000 -0.4469 29.3355 3.7755 2.1193 -7.1250 0.0000 -0.0000 2.2324 34.3021 -0.5864 0.0000 0.0000 0.0000 67.8470 13.0170 33.6931 -150.7827 40.2130 -109.0992 0.0000 -0.0000 -13.4636 -35.6471 12.3945 -8.7511 7.1250 -0.0000 -0.0000 -5.7358 -14.8994 -4.0890
1.1607 14.6417 0.9718 0.6019 8.4475 11.9064 0.0000 0.0000 0.0000 -21.0294 -20.1077 -44.9787 5.8990 14.3297 44.5750 0.1604 0.0970 -7.5999 0.6411 5.1224 14.2581 0.0000 0.0000 0.0000 17.4110 -7.6707 -8.4827 -11.1589 -18.0120 63.2966 -0.0215 -7.9805 -11.8108 -1.1624 6.8444 -19.2551 6.7587 6.3423 -4.3029 -1.1725 8.4361 -7.7565 -4.8578 3.8663 -4.5811 5.6064 -0.4137 -11.4200 -5.7444 0.6519 42.1597 -3.4937 0.6094 17.4322 -0.0000 -0.0000 0.0000 -52.1274 -8.6261 29.2227 158.0256 -32.9481 -113.4281 -0.0000 0.0000 -0.0736 29.3999 3.7025 2.0839 -7.1250 0.0000 -0.0000 2.2854 34.2210 -0.6049 -0.0000 -0.0000 0.0000 67.4999 12.6169 32.9357 -150.8734 40.1329 -109.1578 0.0000 -0.0000 -13.6689 -35.6430 12.3140 -8.6948 7.1250 -0.0000 -0.0000 -5.7443 -14.9966 -4.0831
1.1870 14.6735 1.0511 1.0061 9.8562 11.3251 0.0000 0.0000 0.0000 -22.2248 -20.4005 -43.1266 5.6628 14.0934 43.6128 0.1531 -0.2533 -7.3045 0.6605 5.1980 14.4742 0.0000 0.0000 0.0000 16.6225 -8.0875 -11.0114 -12.7321 -18.6833 68.2912 -0.2044 -4.8641 -11.7192 -1.3096 7.2489 -20.4550 6.3784 6.1667 -4.0313 -1.0396 8.2228 -7.5506 -4.5426 3.7852 -4.6050 5.2672 -0.7659 -11.1737 -5.6859 0.2201 42.2962 -3.4754 0.3996 17.4023 -0.0000 -0.0000 0.0000 -52.6494 -9.1216 29.8964 157.9645 -33.0171 -113.3948 -0.0000 -0.0000 0.2546 29.4171 3.6708 2.0675 -7.1250 0.0000 -0.0000 2.2996 34.1852 -0.6106 -0.0000 -0.0000 0.0000 67.1135 12.3045 32.1821 -150.9580 40.0580 -109.2123 0.0000 -0.0000 -13.9143 -35.6485 12.2789 -8.6725 7.1250 -0.0000 -0.0000 -5.7528 -15.0378 -4.0842
